<svg xmlns="http://www.w3.org/2000/svg" xmlns:xlink="http://www.w3.org/1999/xlink" version="1.1" id="Layer_1" x="0px" y="0px" width="100px" height="100px" viewBox="0 0 100 100" enable-background="new 0 0 100 100" xml:space="preserve">
<g id="Layer_1_1_" display="none">
	<path display="inline" fill="#fff" d="M57.982,14.233l-0.594-2.188l3.373,3.947v1.697c2.522,1.077,4.6,2.705,6.236,4.886   c-0.723-0.177-1.396-0.327-2.025-0.45c-1.252-0.246-1.668-0.211-1.246,0.103c0.463,0.367,1.321,1.847,2.576,4.437   c1.188,2.494,1.895,4.219,2.127,5.172c0.178,0.737-0.121,2.965-0.898,6.687c-0.383,1.867-0.783,3.653-1.207,5.357l-0.45,0.735   c-0.162,0.437,0.13,0.531,0.879,0.286c0.737-0.245,1.192,0.015,1.37,0.778c0.095,0.394,0.115,0.811,0.062,1.246l-1.392,4.845   c-0.968,3.285-1.595,5.078-1.882,5.379c-0.299,0.299-0.749,0.32-1.35,0.061c-0.313-0.081-0.49-0.286-0.533-0.613l0.084,0.92   c-0.014,0.969-0.131,2.088-0.348,3.354c-0.231,1.269-0.908,2.767-2.023,4.498l-2.169,2.536c-0.408,1.623-0.669,2.609-0.776,2.965   c-0.041,0-0.062,0.02-0.062,0.061c-0.025,0.149-0.008,0.131,0.062-0.061c0.245,0.016,1.282,0.947,3.107,2.8   c1.063,1.052,2.113,2.136,3.148,3.253c15.416,5.139,25.456,8.416,30.118,9.836v7.83H6.333V91.4   c1.322-0.383,2.618-0.723,3.885-1.021c1.063-0.831,4.151-2.576,9.262-5.234c2.48-1.309,4.873-2.537,7.177-3.682   c0-0.246,0-0.523,0-0.837c0-1.786,0.715-3.45,2.146-4.987c0.709-0.768,1.417-1.351,2.127-1.762   c0.612-0.587,1.056-1.311,1.328-2.168c0.218-0.682,0.443-1.13,0.675-1.348c-0.558-1.35-1.335-2.42-2.33-3.213   c-1.65-1.336-2.815-3.646-3.498-6.93c-0.218-1.037-0.375-2.101-0.47-3.189l-0.062-1.35c-0.967,0.34-1.642,0.457-2.023,0.348   c-0.382-0.109-0.934-1.629-1.656-4.561c-0.791-3.176-1.111-5.732-0.961-7.668c0.136-1.786,0.743-2.645,1.819-2.576   c0.532,0.042,1.042,0.26,1.534,0.654c-0.341-1.077-0.695-2.263-1.064-3.558c-0.735-2.576-1.137-4.621-1.205-6.134   c-0.069-1.445,0.708-3.633,2.331-6.564c0.395-0.708,0.919-1.635,1.574-2.781c0.422-0.804,0.579-1.26,0.47-1.37   c-0.176-0.191-0.176-0.435,0-0.736c0.259-0.422,0.403-0.708,0.43-0.858c0.067-0.504,0.661-1.036,1.779-1.596   c0.451-0.231,2.611-1.411,6.481-3.536l0.409-0.594l-1.084-0.675l-0.756-1.349l-0.593-1.513l3.373,0.715l-0.757-0.206l1.35-0.264   c0.327-0.342,0.436-0.512,0.327-0.512l0.082-0.737l0.592,0.409l0.512-0.163l0.491-0.941l0.246,0.654   c0.189,0.505,0.395,0.961,0.613,1.37c0.191,0.382,0.361,0.607,0.512,0.675c0.272,0.123,0.49,0.266,0.653,0.429   c0.288,0.273,0.532,0.354,0.737,0.246c0.096-0.054,0.164-0.136,0.204-0.246c-0.286-0.504-0.573-0.899-0.858-1.185   c-0.163-0.178-0.313-0.471-0.45-0.88l-0.123-0.552l1.431,0.592l1.269,1.104l1.512,0.083l-0.674-0.92c0-0.34-0.145-0.653-0.429-0.94   c-0.178-0.178,0.095-0.089,0.817,0.265c0.355,0.178,0.73,0.375,1.125,0.594l0.838,0.081l0.53,0.225   c0.396,0.218,0.75,0.45,1.064,0.695c0.329,0.246,0.552,0.095,0.675-0.45c0.095-0.682,0.157-1.098,0.183-1.247   c0.028-0.178,0.246-0.328,0.656-0.451c0.203-0.054,0.4-0.102,0.592-0.143l1.369,2.291c0.164,0.273,0.498,0.75,1.002,1.431   l0.309-0.245c0.203-0.191,0.271-0.389,0.203-0.594l-0.858-2.617l0.308,0.042c0.231,0.081,0.442,0.266,0.634,0.552   c0.272,0.436,0.92,1.526,1.942,3.271l1.164,2.024L57.982,14.233z"/>
</g>
<g id="Layer_1_copy" display="none">
	<g display="inline">
		<g>
			<path fill="#fff" d="M57.809,20.904l-0.511-1.888l2.908,3.404v1.463c2.176,0.929,3.968,2.333,5.379,4.214     c-0.623-0.152-1.205-0.281-1.747-0.388c-1.08-0.212-1.438-0.182-1.074,0.089c0.399,0.316,1.139,1.593,2.223,3.826     c1.021,2.151,1.633,3.639,1.832,4.461c0.154,0.635-0.104,2.557-0.773,5.768c-0.329,1.61-0.675,3.15-1.041,4.62l-0.389,0.634     c-0.141,0.377,0.111,0.458,0.759,0.247c0.635-0.211,1.028,0.013,1.181,0.671c0.082,0.339,0.1,0.699,0.055,1.074l-1.198,4.18     c-0.835,2.832-1.375,4.379-1.624,4.638c-0.258,0.258-0.646,0.276-1.163,0.052c-0.271-0.07-0.423-0.246-0.459-0.527l0.071,0.793     c-0.012,0.834-0.112,1.801-0.301,2.893c-0.199,1.094-0.781,2.385-1.744,3.879l-1.871,2.188c-0.353,1.398-0.575,2.25-0.67,2.557     c-0.034,0-0.053,0.018-0.053,0.053c-0.022,0.129-0.007,0.111,0.053-0.053c0.211,0.014,1.106,0.816,2.681,2.415     c0.918,0.905,1.823,1.841,2.717,2.806C76.341,79.4,85,82.229,89.021,83.453v6.753H13.265v-2.751     c1.141-0.33,2.257-0.623,3.35-0.883c0.917-0.715,3.58-2.223,7.988-4.514c2.14-1.129,4.203-2.188,6.19-3.175     c0-0.213,0-0.452,0-0.723c0-1.54,0.617-2.976,1.851-4.304c0.612-0.66,1.223-1.162,1.835-1.518     c0.528-0.507,0.911-1.129,1.146-1.869c0.188-0.588,0.382-0.975,0.582-1.162c-0.481-1.164-1.152-2.088-2.009-2.771     c-1.423-1.152-2.428-3.145-3.017-5.977c-0.188-0.895-0.323-1.812-0.405-2.752l-0.053-1.164c-0.834,0.295-1.416,0.396-1.745,0.301     c-0.33-0.094-0.806-1.404-1.429-3.932c-0.682-2.741-0.959-4.945-0.829-6.614c0.118-1.541,0.641-2.281,1.569-2.222     c0.458,0.036,0.899,0.224,1.323,0.564c-0.294-0.929-0.6-1.951-0.917-3.068c-0.634-2.221-0.981-3.985-1.04-5.29     c-0.06-1.246,0.611-3.134,2.011-5.661c0.34-0.611,0.792-1.41,1.357-2.398c0.364-0.693,0.5-1.087,0.405-1.182     c-0.152-0.165-0.152-0.375,0-0.634c0.223-0.364,0.347-0.611,0.37-0.741c0.058-0.435,0.571-0.893,1.534-1.376     c0.389-0.199,2.252-1.216,5.59-3.049l0.353-0.513l-0.935-0.582l-0.651-1.163l-0.512-1.305l2.909,0.617l-0.652-0.177l1.165-0.228     c0.282-0.295,0.376-0.441,0.282-0.441l0.071-0.635l0.51,0.353l0.441-0.141l0.424-0.812l0.212,0.564     c0.163,0.436,0.34,0.829,0.528,1.182c0.165,0.33,0.312,0.523,0.441,0.582c0.235,0.106,0.423,0.23,0.564,0.37     c0.248,0.236,0.459,0.306,0.635,0.212c0.082-0.046,0.142-0.117,0.176-0.212c-0.247-0.435-0.494-0.775-0.741-1.021     c-0.141-0.153-0.27-0.406-0.388-0.759l-0.106-0.476l1.235,0.511l1.094,0.952l1.304,0.071L46.699,17.5     c0-0.293-0.124-0.563-0.37-0.811c-0.154-0.153,0.083-0.077,0.704,0.229c0.307,0.153,0.63,0.324,0.971,0.512l0.724,0.069     l0.457,0.195c0.342,0.188,0.647,0.387,0.917,0.599c0.284,0.212,0.477,0.082,0.583-0.388c0.082-0.588,0.135-0.947,0.156-1.075     c0.024-0.153,0.213-0.283,0.565-0.389c0.175-0.046,0.346-0.087,0.511-0.123l1.182,1.975c0.142,0.235,0.43,0.647,0.863,1.234     l0.268-0.211c0.174-0.165,0.232-0.335,0.174-0.513l-0.739-2.257l0.265,0.036c0.2,0.07,0.383,0.229,0.547,0.476     c0.235,0.375,0.793,1.316,1.676,2.821l1.005,1.746L57.809,20.904z"/>
		</g>
		<path fill="#fff" stroke="#010101" stroke-width="6" stroke-miterlimit="10" d="M92.173,78.23c0,6.963-5.646,12.608-12.608,12.608    H21.942c-6.964,0-12.609-5.646-12.609-12.608V20.609C9.333,13.645,14.979,8,21.942,8h57.623c6.963,0,12.607,5.645,12.607,12.609    L92.173,78.23L92.173,78.23z"/>
	</g>
</g>
<g id="Layer_2" display="none">
	<polygon display="inline" fill="#fff" points="76.29,47.674 23,6.337 30.471,72.576 46.783,63.711 62.613,89.406 75.771,81.3    60.381,56.32  "/>
</g>
<g id="Layer_2_copy" display="none">
	<polygon display="inline" fill="#fff" stroke="#010101" stroke-width="5" stroke-miterlimit="10" points="76.29,50.674 23,9.337    30.471,75.576 46.783,66.711 62.613,92.406 75.771,84.3 60.381,59.32  "/>
</g>
<g id="Layer_5" display="none">
	<path display="inline" fill="#fff" d="M89.332,38l-2.045,1.589l2.706,0.438l1.794-1.443L89.332,38z M84.482,40.139   c-3.227-0.732-6.981-0.732-11.269,0c-4.284,0.732-8.057,1.901-11.312,3.506c-3.258,1.604-4.891,3.686-4.897,6.241   c-0.008,2.167,0.757,4.475,2.291,6.93c0.671,1.152,2.036,2.307,4.097,3.459c2.062,1.154,5.476,1.461,10.244,0.925   c3.312-0.765,6.012-2.069,8.1-3.916c2.097-1.854,3.884-4.99,5.365-9.408C88.588,43.45,87.716,40.872,84.482,40.139z M53.457,43.424   c5.82-2.789,11.994-4.869,18.52-6.242c6.856-1.091,13.713-1.519,20.57-1.286c2.625,0.593,3.145,2.088,1.555,4.489l-0.387,0.456   c-0.451,0.452-0.949,0.822-1.496,1.11c-0.443,0.452-0.818,1.247-1.121,2.385c-1.053,4.862-3.062,9.021-6.031,12.482   c-2.049,2.461-4.873,4.347-8.474,5.656c-1.137,0.396-2.2,0.705-3.19,0.922c-0.988,0.211-2.866,0.22-5.633,0.024   c-6.117-0.71-9.961-2.948-11.535-6.721c-1.565-3.771-2.008-6.382-1.321-7.831c0.25-0.981-0.334-1.41-1.752-1.285   c-1.815,0.283-3.624,0.283-5.424,0c-1.419-0.128-2.003,0.301-1.753,1.285c0.688,1.446,0.245,4.057-1.326,7.831   c-1.572,3.774-5.415,6.015-11.53,6.721c-2.769,0.19-4.646,0.181-5.633-0.028c-0.987-0.211-2.051-0.518-3.191-0.918   c-3.597-1.309-6.422-3.193-8.473-5.656c-2.967-3.457-4.977-7.617-6.031-12.482c-0.303-1.138-0.679-1.933-1.127-2.385   c-0.544-0.288-1.041-0.658-1.491-1.11l-0.386-0.456c-1.59-2.402-1.072-3.898,1.555-4.489c6.856-0.236,13.713,0.193,20.57,1.286   c6.591,1.388,12.824,3.493,18.699,6.317c0.992,0.188,1.967,0.287,2.923,0.298c0.82,0.011,1.739-0.088,2.752-0.298   C53.35,43.473,53.402,43.447,53.457,43.424z M13.609,39.589L11.564,38l-2.455,0.584l1.806,1.455L13.609,39.589z M27.681,40.139   c-4.283-0.734-8.04-0.734-11.272,0c-3.233,0.736-4.105,3.315-2.618,7.737c1.486,4.421,3.274,7.556,5.364,9.401   c2.091,1.85,4.793,3.156,8.105,3.923c4.765,0.538,8.193,0.243,10.285-0.884c2.094-1.125,3.511-2.293,4.254-3.5   c1.4-2.453,2.098-4.764,2.092-6.93c-0.007-2.557-1.64-4.637-4.897-6.241C35.737,42.04,31.965,40.872,27.681,40.139z"/>
</g>
<g id="Layer_7" display="none">
	<path display="inline" fill="#fff" d="M34.881,3.315c-0.011,0.001-0.021,0.001-0.032,0c-0.957,0.117-1.356,0.566-1.198,1.348   c-0.001,0.036-0.001,0.072,0,0.107c-0.265,6.437-0.411,12.856-0.438,19.261c-0.114,18.833,0.72,37.538,2.503,56.114   c0.072,2.512,0.7,4.58,1.883,6.207c1.341,1.883,3.425,3.166,6.25,3.853c0.442,0.101,0.884,0.192,1.327,0.278   c2.754,0.371,5.493,0.471,8.219,0.299c2.098-0.143,4.182-0.449,6.25-0.92c5.25-1.284,7.961-4.637,8.131-10.059   c2.396-24.947,3.08-50.137,2.056-75.568c0.188-0.546-0.242-0.853-1.295-0.92c-5.776,0.304-11.573,0.469-17.39,0.492   C45.746,3.817,40.324,3.654,34.881,3.315z M32.227,15.77l0.578-9.887C32.363,3.4,33.304,2.331,35.63,2.672l16.222,0.407   l16.223-0.407C70.4,2.33,71.343,3.4,70.898,5.883l0.408,10.122c0.09,0.337,0.188,2.723,0.299,7.159   c0.108,4.434,0.018,10.593-0.277,18.48l-1.755,50.935c-0.015,2.024-1.171,3.065-3.468,3.124H37.599   c-2.297-0.059-3.453-1.1-3.467-3.124l-1.755-50.935c-0.328-5.821-0.492-11.692-0.492-17.613   C31.871,21.396,31.985,18.642,32.227,15.77z"/>
</g>
<g id="Layer_6" display="none">
	<path display="inline" fill="#fff" d="M48.985,23.405c-0.165,0.165-0.254,0.364-0.268,0.597v0.021c0,0.013,0,0.027,0,0.041   c0,0.261,0.09,0.48,0.268,0.659c0.178,0.179,0.397,0.267,0.658,0.267c0.261,0,0.48-0.088,0.659-0.267   c0.177-0.178,0.266-0.398,0.266-0.659c0-0.027,0-0.048,0-0.062c-0.014-0.232-0.103-0.432-0.266-0.597   c-0.179-0.178-0.398-0.268-0.659-0.268C49.382,23.137,49.163,23.227,48.985,23.405z M45.652,24.495   c-0.082-0.068-0.178-0.103-0.287-0.103c-0.11,0-0.199,0.035-0.268,0.103c-0.084,0.068-0.124,0.151-0.124,0.247v0.042   c0,0.109,0.04,0.198,0.124,0.267c0.068,0.083,0.157,0.123,0.268,0.123c0.109,0,0.205-0.041,0.287-0.123   c0.068-0.069,0.103-0.158,0.103-0.267c0-0.014,0-0.028,0-0.042C45.755,24.646,45.721,24.563,45.652,24.495z M44.006,21.471   c-0.26,0-0.479,0.09-0.658,0.268c-0.165,0.165-0.254,0.363-0.268,0.597v0.02c0,0.014,0,0.028,0,0.042   c0,0.261,0.09,0.48,0.268,0.659c0.18,0.178,0.398,0.267,0.658,0.267c0.261,0,0.48-0.089,0.658-0.267   c0.18-0.178,0.268-0.398,0.268-0.659c0-0.028,0-0.048,0-0.062c-0.014-0.234-0.102-0.432-0.268-0.597   C44.486,21.561,44.267,21.471,44.006,21.471z M46.897,21.285c-0.007,0.025-0.011,0.052-0.011,0.082v0.042   c0,0.109,0.041,0.199,0.123,0.268c0.068,0.082,0.158,0.124,0.268,0.124c0.11,0,0.207-0.042,0.289-0.124   c0.067-0.069,0.102-0.158,0.102-0.268c0-0.014,0-0.027,0-0.042c0-0.033-0.003-0.064-0.01-0.092l0.874-0.021   c-0.082-0.143-0.123-0.304-0.123-0.484c0-0.013,0-0.027,0-0.041v-0.021c0.014-0.233,0.104-0.432,0.268-0.597   c0.179-0.178,0.398-0.268,0.658-0.268c0.26,0,0.48,0.089,0.659,0.268c0.164,0.165,0.252,0.364,0.267,0.597c0,0.014,0,0.034,0,0.062   c0,0.167-0.038,0.318-0.113,0.453l2.211-0.042c0.009-0.242,0.099-0.447,0.269-0.617c0.179-0.179,0.397-0.268,0.659-0.268   c0.259,0,0.479,0.089,0.658,0.268c0.162,0.164,0.253,0.362,0.267,0.596h0.947c0.013-0.233,0.103-0.432,0.267-0.596   c0.18-0.179,0.398-0.268,0.658-0.268c0.262,0,0.479,0.089,0.659,0.268c0.164,0.165,0.254,0.363,0.269,0.596h2.508v0.021   c0,0.014,0,0.028,0,0.042c0,0.177,0.043,0.334,0.125,0.473c-0.014,0-0.027,0-0.041,0c-0.139,0-0.254,0.048-0.351,0.145   c-0.096,0.096-0.146,0.219-0.146,0.37c0,0.137,0.05,0.254,0.146,0.35c0.097,0.096,0.212,0.145,0.351,0.145   c0.149,0,0.273-0.048,0.369-0.145c0.096-0.096,0.146-0.212,0.146-0.35c0-0.042-0.005-0.083-0.013-0.124   c0.104,0.042,0.219,0.062,0.342,0.062c0.261,0,0.48-0.089,0.658-0.268c0.178-0.179,0.268-0.397,0.268-0.658   c0-0.028,0-0.048,0-0.062h0.598c0.018-0.237,0.105-0.437,0.268-0.596c0.178-0.179,0.396-0.268,0.658-0.268   c0.261,0,0.479,0.089,0.658,0.268c0.164,0.165,0.254,0.363,0.268,0.596h1.584c0.553,0.088,0.854,0.294,0.906,0.617   c-0.061-5.312-0.197-10.634-0.412-15.966c0.179-0.521-0.233-0.815-1.235-0.884c-5.556,0.288-11.13,0.446-16.727,0.473   C42.751,5.417,37.539,5.259,32.3,4.929h-0.021c-0.934,0.11-1.316,0.542-1.152,1.296c-0.014,0.042-0.014,0.076,0,0.103   c-0.235,5.593-0.376,11.175-0.422,16.748c0.025-0.837,0.372-1.351,1.039-1.543l9.496-0.154c-0.035-0.102-0.053-0.208-0.053-0.319   c0-0.014,0-0.028,0-0.042v-0.02c0.014-0.233,0.104-0.432,0.268-0.596c0.178-0.179,0.397-0.268,0.658-0.268   c0.262,0,0.48,0.089,0.659,0.268c0.164,0.165,0.253,0.363,0.267,0.596c0,0.014,0,0.034,0,0.062c0,0.101-0.014,0.196-0.041,0.288   L46.897,21.285z M38.533,22.994c-0.178-0.179-0.397-0.268-0.658-0.268c-0.26,0-0.48,0.089-0.658,0.268   c-0.164,0.164-0.254,0.363-0.268,0.596v0.021c0,0.014,0,0.027,0,0.042c0,0.11,0.021,0.219,0.062,0.329   c0.015,0.055,0.034,0.11,0.062,0.165c0.042,0.055,0.09,0.109,0.145,0.164c0.178,0.179,0.398,0.268,0.658,0.268   c0.261,0,0.48-0.088,0.658-0.268c0.068-0.068,0.124-0.137,0.166-0.205c0.026-0.055,0.047-0.11,0.061-0.165   c0.027-0.097,0.041-0.192,0.041-0.288c0-0.027,0-0.049,0-0.062C38.787,23.357,38.699,23.158,38.533,22.994z M58.654,16.451   c0.097-0.096,0.214-0.144,0.351-0.144c0.151,0,0.274,0.048,0.371,0.144c0.097,0.096,0.144,0.22,0.144,0.371   c0,0.137-0.047,0.254-0.144,0.35c-0.097,0.096-0.22,0.144-0.371,0.144c-0.137,0-0.254-0.047-0.351-0.144   c-0.096-0.096-0.143-0.213-0.143-0.35C58.512,16.67,58.561,16.546,58.654,16.451z M56.352,18.549   c0.178-0.179,0.396-0.268,0.658-0.268c0.26,0,0.479,0.089,0.657,0.268c0.179,0.178,0.269,0.397,0.269,0.658s-0.09,0.48-0.269,0.658   c-0.179,0.178-0.397,0.268-0.657,0.268c-0.262,0-0.48-0.09-0.658-0.268c-0.179-0.178-0.269-0.396-0.269-0.658   S56.173,18.728,56.352,18.549z M52.215,19.434c0.098,0.096,0.145,0.219,0.145,0.371c0,0.137-0.047,0.254-0.145,0.35   c-0.096,0.096-0.218,0.144-0.369,0.144c-0.138,0-0.255-0.047-0.35-0.144c-0.098-0.096-0.145-0.213-0.145-0.35   c0-0.151,0.047-0.275,0.145-0.371c0.095-0.096,0.212-0.145,0.35-0.145C51.997,19.29,52.119,19.338,52.215,19.434z M54.438,23.24   c-0.328,0.315-0.508,0.707-0.535,1.173v0.041c0,0.027,0,0.055,0,0.082c0,0.044,0.005,0.089,0.012,0.134   c-0.128-0.062-0.27-0.093-0.422-0.093c-0.262,0-0.479,0.089-0.658,0.268c-0.165,0.164-0.253,0.37-0.27,0.617   c0,0.014,0,0.027,0,0.041c0,0.261,0.09,0.48,0.27,0.659c0.18,0.178,0.396,0.268,0.658,0.268c0.26,0,0.48-0.089,0.658-0.268   c0.111-0.113,0.188-0.243,0.227-0.391c0.021,0.022,0.042,0.042,0.062,0.062c0.343,0.343,0.773,0.514,1.295,0.514   c0.509,0,0.939-0.17,1.297-0.514c0.123-0.137,0.227-0.274,0.31-0.412c0.056-0.109,0.097-0.219,0.124-0.329   c0.055-0.191,0.081-0.377,0.081-0.556c0-0.055,0-0.096,0-0.123c-0.008-0.148-0.032-0.289-0.071-0.422   c0.194-0.03,0.361-0.116,0.504-0.257c0.179-0.178,0.269-0.398,0.269-0.658c0-0.261-0.09-0.48-0.269-0.658   c-0.179-0.179-0.396-0.268-0.658-0.268s-0.479,0.089-0.657,0.268c-0.121,0.119-0.199,0.257-0.237,0.411   c-0.212-0.083-0.441-0.123-0.689-0.123C55.212,22.706,54.779,22.884,54.438,23.24z M52.668,22.252   c-0.082-0.068-0.178-0.103-0.288-0.103c-0.108,0-0.198,0.034-0.269,0.103c-0.055,0.042-0.088,0.096-0.103,0.165   c-0.013,0.027-0.021,0.055-0.021,0.082v0.042c0,0.109,0.041,0.199,0.123,0.267c0.068,0.083,0.158,0.123,0.268,0.123   s0.206-0.041,0.288-0.123c0.067-0.068,0.104-0.158,0.104-0.267c0-0.014,0-0.028,0-0.042c0-0.027,0-0.055,0-0.082   C52.743,22.349,52.709,22.294,52.668,22.252z M59.107,20.709c-0.098,0.096-0.219,0.144-0.371,0.144   c-0.137,0-0.254-0.048-0.35-0.144s-0.144-0.212-0.144-0.35c0-0.151,0.048-0.274,0.144-0.37c0.096-0.096,0.213-0.145,0.35-0.145   c0.152,0,0.273,0.049,0.371,0.145c0.097,0.096,0.145,0.219,0.145,0.37C59.252,20.497,59.204,20.613,59.107,20.709z M29.748,16.903   l0.556-9.505c-0.425-2.386,0.479-3.415,2.716-3.086l15.595,0.391L64.21,4.312c2.237-0.329,3.142,0.7,2.716,3.086l0.391,9.731   c0.084,0.33,0.181,2.627,0.289,6.893c0.109,4.251,0.021,10.17-0.268,17.755L65.65,90.743c-0.014,1.948-1.125,2.948-3.334,3.005   H34.912c-2.207-0.057-3.318-1.057-3.332-3.005l-1.688-48.966c-0.315-5.596-0.473-11.24-0.473-16.932   C29.405,22.308,29.516,19.661,29.748,16.903z M43.76,27.458c-0.082-0.069-0.178-0.103-0.288-0.103c-0.11,0-0.199,0.033-0.268,0.103   c-0.082,0.069-0.124,0.151-0.124,0.247v0.041c0,0.109,0.042,0.199,0.124,0.268c0.068,0.082,0.157,0.123,0.268,0.123   c0.111,0,0.206-0.041,0.288-0.123c0.068-0.068,0.102-0.158,0.102-0.268c0-0.014,0-0.027,0-0.041   C43.861,27.609,43.828,27.527,43.76,27.458z M47.566,26.346c-0.11,0-0.2,0.035-0.268,0.103c-0.082,0.069-0.125,0.152-0.125,0.248   v0.04c0,0.11,0.043,0.199,0.125,0.269c0.067,0.082,0.157,0.123,0.268,0.123c0.109,0,0.205-0.041,0.287-0.123   c0.068-0.069,0.104-0.158,0.104-0.269c0-0.013,0-0.027,0-0.04c0-0.096-0.035-0.179-0.104-0.248   C47.771,26.381,47.676,26.346,47.566,26.346z M38.699,26.388c0-0.096-0.035-0.178-0.104-0.247   c-0.082-0.068-0.179-0.103-0.288-0.103c-0.11,0-0.2,0.035-0.268,0.103c-0.082,0.069-0.124,0.151-0.124,0.247v0.042   c0,0.109,0.042,0.198,0.124,0.268c0.067,0.082,0.157,0.123,0.268,0.123c0.109,0,0.206-0.041,0.288-0.123   c0.068-0.069,0.104-0.158,0.104-0.268C38.699,26.415,38.699,26.401,38.699,26.388z M62.357,14.311   c0.18,0.179,0.274,0.398,0.289,0.659c0,0.014,0,0.034,0,0.062c0,0.302-0.098,0.548-0.289,0.741   c-0.205,0.192-0.451,0.288-0.739,0.288c-0.287,0-0.528-0.096-0.722-0.288c-0.205-0.192-0.308-0.438-0.308-0.741   c0-0.014,0-0.028,0-0.042c0.015-0.274,0.116-0.5,0.308-0.679c0.192-0.205,0.435-0.309,0.722-0.309   C61.906,14.002,62.152,14.105,62.357,14.311z M64.375,17.191c0.096,0.096,0.145,0.219,0.145,0.37c0,0.137-0.049,0.254-0.145,0.35   c-0.096,0.096-0.221,0.144-0.37,0.144c-0.138,0-0.254-0.048-0.351-0.144c-0.096-0.096-0.145-0.213-0.145-0.35   c0-0.151,0.049-0.274,0.145-0.37c0.097-0.096,0.213-0.144,0.351-0.144C64.154,17.047,64.279,17.095,64.375,17.191z M60.383,18.549   c0.18-0.179,0.398-0.268,0.659-0.268s0.479,0.089,0.658,0.268c0.179,0.178,0.268,0.397,0.268,0.658s-0.089,0.48-0.268,0.658   c-0.179,0.178-0.397,0.268-0.658,0.268s-0.479-0.09-0.659-0.268c-0.178-0.178-0.267-0.396-0.267-0.658S60.205,18.728,60.383,18.549   z M62.955,18.426c0.098-0.096,0.213-0.146,0.35-0.146c0.151,0,0.275,0.048,0.371,0.146c0.096,0.096,0.145,0.219,0.145,0.37   c0,0.138-0.049,0.254-0.145,0.35s-0.22,0.144-0.371,0.144c-0.137,0-0.252-0.047-0.35-0.144c-0.096-0.096-0.145-0.212-0.145-0.35   C62.812,18.646,62.859,18.522,62.955,18.426z M63.512,22.561v0.021c0,0.014,0,0.028,0,0.042c0,0.261,0.088,0.48,0.268,0.659   c0.178,0.178,0.398,0.267,0.658,0.267s0.479-0.089,0.658-0.267c0.178-0.179,0.266-0.398,0.266-0.659c0-0.028,0-0.048,0-0.062   c-0.012-0.233-0.102-0.432-0.266-0.596c-0.18-0.179-0.398-0.268-0.658-0.268s-0.48,0.089-0.658,0.268   C63.613,22.129,63.523,22.328,63.512,22.561z M61.352,24.001c-0.262,0-0.48,0.089-0.658,0.267   c-0.164,0.166-0.254,0.371-0.269,0.617c0,0.015,0,0.028,0,0.042c0,0.26,0.089,0.479,0.269,0.657   c0.178,0.179,0.396,0.268,0.658,0.268c0.26,0,0.479-0.089,0.657-0.268c0.179-0.178,0.269-0.397,0.269-0.657   c0-0.027,0-0.048,0-0.062c-0.014-0.233-0.104-0.432-0.269-0.597C61.83,24.091,61.611,24.001,61.352,24.001z"/>
</g>
<g id="Layer_8" display="none">
	<path display="inline" fill="#fff" d="M34.708,4.775c-0.64,0.034-0.952,0.413-0.935,1.137L29.25,45.637   c0,0.101,0.008,0.202,0.025,0.303c0.624,7.785,5.231,13.048,13.823,15.792c2.494,0.607,4.785,0.929,6.874,0.961   c2.088-0.032,4.372-0.354,6.848-0.961c8.592-2.744,13.199-8.01,13.822-15.792c0.018-0.101,0.025-0.202,0.025-0.303l-4.5-39.522   l0.025-0.252c0-0.64-0.312-1.062-0.936-1.264L34.708,4.775z M32.458,6.595c0.168-1.601,0.606-2.443,1.314-2.527   c0.69-0.101,1.146-0.126,1.364-0.076h29.945c0.319,0,0.801,0.135,1.44,0.404c0.623,0.253,0.935,0.986,0.935,2.199l4.728,37.424   c0.319,8.945-3.826,16.256-12.435,21.935c-4.062,1.685-5.987,4.741-5.787,9.173l0.103,10.387c-0.135,2.189,0.36,3.688,1.49,4.498   c4.178,0.909,7.682,2.215,10.512,3.916l3.791,0.076c0.994,0.589,0.994,1.297,0,2.123H30.058c-0.994-0.826-0.994-1.533,0-2.123   l3.791-0.076c2.83-1.701,6.334-3.007,10.512-3.916c1.128-0.81,1.625-2.309,1.491-4.498l0.102-10.387   c0.201-4.432-1.727-7.488-5.787-9.173c-8.608-5.679-12.753-12.989-12.433-21.935L32.458,6.595z"/>
</g>
<g id="Layer_9" display="none">
	<path display="inline" fill="#fff" d="M30.922,30.382v0.051c0,0.134,0.051,0.243,0.15,0.327c0.084,0.099,0.193,0.15,0.327,0.15   c0.133,0,0.251-0.051,0.352-0.15c0.083-0.083,0.125-0.192,0.125-0.327c0-0.018,0-0.035,0-0.051c0-0.117-0.042-0.218-0.125-0.301   c-0.101-0.084-0.218-0.126-0.352-0.126c-0.134,0-0.243,0.042-0.327,0.126C30.973,30.165,30.922,30.266,30.922,30.382z    M30.871,25.912c-0.318,0-0.585,0.109-0.803,0.327c-0.2,0.201-0.31,0.443-0.326,0.729v0.024c0,0.017,0,0.035,0,0.05   c0,0.134,0.025,0.269,0.075,0.402c0.017,0.066,0.042,0.133,0.076,0.201c0.05,0.066,0.109,0.134,0.175,0.201   c0.218,0.218,0.485,0.327,0.803,0.327s0.586-0.109,0.804-0.327c0.084-0.084,0.151-0.167,0.201-0.251   c0.034-0.066,0.059-0.134,0.076-0.201c0.033-0.117,0.049-0.235,0.049-0.352c0-0.033,0-0.058,0-0.074   c-0.016-0.286-0.125-0.528-0.327-0.729C31.458,26.021,31.189,25.912,30.871,25.912z M37.225,25.485v0.025   c0,0.317,0.108,0.586,0.326,0.804c0.218,0.218,0.485,0.327,0.804,0.327c0.318,0,0.586-0.109,0.803-0.327   c0.218-0.218,0.327-0.486,0.327-0.804v-0.05l4.973-0.051c0-0.016,0.008-0.033,0.025-0.05c0.117-0.117,0.259-0.175,0.426-0.175   c0.185,0,0.335,0.058,0.452,0.175c0.017,0.018,0.034,0.035,0.051,0.05l4.695-0.05c-0.017-0.083-0.025-0.175-0.025-0.276   c0-0.317,0.109-0.585,0.327-0.803c0.218-0.218,0.485-0.326,0.803-0.326s0.587,0.107,0.806,0.326   c0.217,0.218,0.325,0.486,0.325,0.803c0,0.083-0.009,0.167-0.024,0.251h1.783c-0.119,0.05-0.218,0.118-0.303,0.202   c-0.117,0.117-0.191,0.243-0.227,0.375c0.066,0.018,0.136,0.059,0.203,0.126c0.115,0.117,0.175,0.268,0.175,0.452   c0,0.167-0.06,0.31-0.175,0.428c-0.118,0.117-0.271,0.175-0.453,0.175c-0.168,0-0.311-0.058-0.428-0.175   c-0.117-0.118-0.177-0.261-0.177-0.428c0-0.184,0.06-0.335,0.177-0.452c0.051-0.051,0.109-0.093,0.176-0.126   c-0.133-0.016-0.269-0.025-0.401-0.025c-0.301,0-0.577,0.05-0.828,0.151c-0.101,0.033-0.185,0.076-0.252,0.125   c-0.185,0.101-0.353,0.227-0.502,0.377c-0.401,0.385-0.62,0.862-0.653,1.432v0.05c0,0.033,0,0.066,0,0.1   c0,0.05,0.008,0.108,0.025,0.177c-0.167-0.085-0.343-0.126-0.527-0.126c-0.318,0-0.585,0.109-0.803,0.327   c-0.201,0.201-0.31,0.452-0.327,0.753c0,0.018,0,0.033,0,0.051c0,0.317,0.109,0.586,0.327,0.803   c0.218,0.218,0.485,0.327,0.803,0.327c0.317,0,0.585-0.109,0.802-0.327c0.135-0.134,0.227-0.293,0.277-0.477   c0.032,0.033,0.059,0.059,0.074,0.074c0.419,0.42,0.946,0.628,1.582,0.628c0.619,0,1.146-0.208,1.583-0.628   c0.149-0.167,0.274-0.335,0.375-0.502c0.067-0.134,0.118-0.267,0.151-0.401c0.066-0.235,0.101-0.461,0.101-0.679   c0-0.066,0-0.117,0-0.15c-0.019-0.185-0.042-0.352-0.075-0.502c0.234-0.05,0.436-0.159,0.604-0.326   c0.05-0.051,0.101-0.102,0.15-0.152c-0.102,0.017-0.209,0.025-0.326,0.025c-0.318,0-0.586-0.108-0.803-0.327   c-0.22-0.216-0.328-0.484-0.328-0.803c0-0.233,0.067-0.444,0.201-0.626c0.033-0.068,0.075-0.127,0.127-0.177   c0.166-0.167,0.375-0.267,0.627-0.302c0.051-0.2,0.143-0.368,0.275-0.501c0.218-0.218,0.484-0.326,0.804-0.326   s0.585,0.107,0.804,0.326c0.219,0.218,0.326,0.486,0.326,0.803c0,0.068,0,0.134,0,0.202h1.936c0.031-0.068,0.083-0.134,0.15-0.202   c0.217-0.218,0.484-0.327,0.803-0.327s0.586,0.109,0.804,0.327c0.051,0.05,0.101,0.109,0.151,0.177h1.229   c0.018-0.135,0.068-0.244,0.152-0.327c0.115-0.117,0.258-0.177,0.426-0.177c0.184,0,0.334,0.06,0.453,0.177   c0.082,0.083,0.142,0.185,0.175,0.302h0.024c0.938,0.117,1.49,0.502,1.658,1.155L62.841,5.521l0.022-0.251   c0-0.636-0.309-1.055-0.928-1.255L31.575,4.19c-0.636,0.033-0.946,0.411-0.929,1.13L28.26,26.515   c0.15-0.485,0.619-0.812,1.406-0.979L37.225,25.485z M29.34,5.998c0.167-1.59,0.603-2.426,1.306-2.51   c0.687-0.101,1.138-0.126,1.356-0.076h29.757c0.318,0,0.798,0.134,1.433,0.401c0.619,0.251,0.93,0.98,0.93,2.185l4.695,37.192   c0.15,4.286-0.729,8.195-2.637,11.727c-2.043,3.8-5.281,7.158-9.718,10.069c-4.036,1.676-5.952,4.713-5.751,9.117l0.102,10.319   c-0.135,2.179,0.359,3.665,1.481,4.472c4.151,0.901,7.634,2.201,10.446,3.893l3.767,0.076c0.988,0.584,0.988,1.287,0,2.107H26.954   c-0.987-0.82-0.987-1.523,0-2.107l3.767-0.076c2.813-1.691,6.296-2.99,10.448-3.893c1.121-0.807,1.616-2.293,1.481-4.472   l0.1-10.319c0.201-4.404-1.716-7.441-5.751-9.117c-8.555-5.641-12.673-12.907-12.355-21.796L29.34,5.998z M37.225,31.989v0.05   c0,0.135,0.05,0.244,0.151,0.327c0.083,0.099,0.192,0.15,0.327,0.15c0.134,0,0.251-0.051,0.351-0.15   c0.084-0.083,0.126-0.192,0.126-0.327c0-0.017,0-0.033,0-0.05c0-0.117-0.042-0.217-0.126-0.301   c-0.099-0.084-0.217-0.125-0.351-0.125c-0.135,0-0.244,0.041-0.327,0.125C37.275,31.772,37.225,31.873,37.225,31.989z    M55.958,19.106c0.233-0.251,0.526-0.376,0.88-0.376c0.352,0,0.652,0.125,0.903,0.376c0.219,0.218,0.335,0.486,0.353,0.803   c0,0.018,0,0.043,0,0.076c0,0.368-0.117,0.669-0.353,0.904c-0.251,0.234-0.552,0.351-0.903,0.351c-0.354,0-0.646-0.117-0.88-0.351   c-0.251-0.235-0.376-0.536-0.376-0.904c0-0.017,0-0.033,0-0.051C55.6,19.601,55.725,19.324,55.958,19.106z M54.102,21.719   c0.115,0.117,0.176,0.267,0.176,0.452c0,0.167-0.061,0.31-0.176,0.426c-0.119,0.119-0.269,0.177-0.451,0.177   c-0.168,0-0.312-0.058-0.428-0.177c-0.117-0.117-0.177-0.259-0.177-0.426c0-0.185,0.06-0.334,0.177-0.452   c0.116-0.118,0.26-0.176,0.428-0.176C53.833,21.542,53.982,21.601,54.102,21.719z M57.064,22.974c0-0.185,0.058-0.334,0.176-0.452   c0.115-0.117,0.259-0.177,0.426-0.177c0.186,0,0.335,0.06,0.452,0.177c0.116,0.117,0.177,0.267,0.177,0.452   c0,0.167-0.061,0.309-0.177,0.428c-0.117,0.117-0.269,0.175-0.452,0.175c-0.167,0-0.311-0.059-0.426-0.175   C57.122,23.283,57.064,23.142,57.064,22.974z M46.366,27.544c0-0.034,0-0.059,0-0.075c-0.017-0.285-0.125-0.527-0.327-0.729   c-0.218-0.217-0.485-0.325-0.804-0.325c-0.319,0-0.585,0.107-0.803,0.325c-0.201,0.203-0.31,0.444-0.326,0.729v0.026   c0,0.015,0,0.033,0,0.049c0,0.318,0.109,0.585,0.326,0.803c0.218,0.218,0.485,0.327,0.803,0.327c0.318,0,0.585-0.109,0.804-0.327   C46.257,28.13,46.366,27.863,46.366,27.544z M42.223,30.809c0,0.134,0.05,0.243,0.15,0.327c0.084,0.101,0.192,0.151,0.326,0.151   c0.135,0,0.251-0.05,0.352-0.151c0.083-0.083,0.125-0.192,0.125-0.327c0-0.016,0-0.033,0-0.049c0-0.118-0.042-0.218-0.125-0.302   c-0.101-0.083-0.217-0.126-0.352-0.126c-0.134,0-0.242,0.042-0.326,0.126c-0.1,0.084-0.15,0.184-0.15,0.302V30.809z M40.364,28.071   c-0.1-0.083-0.218-0.125-0.352-0.125c-0.133,0-0.242,0.041-0.327,0.125c-0.1,0.083-0.15,0.185-0.15,0.302v0.05   c0,0.134,0.05,0.243,0.15,0.327c0.084,0.101,0.193,0.149,0.327,0.149c0.134,0,0.252-0.049,0.352-0.149   c0.083-0.084,0.125-0.193,0.125-0.327c0-0.016,0-0.033,0-0.05C40.49,28.256,40.448,28.155,40.364,28.071z M63.77,23.25   c0.185,0,0.334,0.059,0.451,0.176c0.117,0.118,0.178,0.268,0.178,0.453c0,0.167-0.061,0.31-0.178,0.426   c-0.117,0.116-0.268,0.177-0.451,0.177c-0.168,0-0.311-0.061-0.427-0.177c-0.118-0.117-0.178-0.259-0.178-0.426   c0-0.185,0.06-0.334,0.178-0.453C63.459,23.309,63.602,23.25,63.77,23.25z M62.111,20.79c0,0.368-0.117,0.669-0.354,0.904   c-0.25,0.234-0.552,0.351-0.902,0.351c-0.353,0-0.645-0.117-0.879-0.351c-0.252-0.235-0.377-0.537-0.377-0.904   c0-0.016,0-0.033,0-0.051c0.018-0.334,0.144-0.611,0.377-0.829c0.234-0.25,0.526-0.375,0.879-0.375   c0.352,0,0.652,0.125,0.902,0.375c0.219,0.218,0.338,0.487,0.354,0.804C62.111,20.731,62.111,20.756,62.111,20.79z M59.148,23.075   c0-0.185,0.059-0.335,0.176-0.453c0.117-0.117,0.26-0.175,0.427-0.175c0.185,0,0.335,0.058,0.452,0.175   c0.117,0.118,0.176,0.268,0.176,0.453c0,0.167-0.059,0.31-0.176,0.426c-0.117,0.116-0.27,0.175-0.452,0.175   c-0.167,0-0.31-0.058-0.427-0.175C59.207,23.384,59.148,23.242,59.148,23.075z M58.471,24.13c0.117-0.117,0.26-0.176,0.428-0.176   c0.184,0,0.334,0.059,0.451,0.176c0.116,0.117,0.176,0.268,0.176,0.451c0,0.167-0.06,0.31-0.176,0.428   c-0.117,0.117-0.269,0.175-0.451,0.175c-0.168,0-0.311-0.059-0.428-0.175c-0.117-0.118-0.176-0.26-0.176-0.428   C58.295,24.398,58.354,24.247,58.471,24.13z"/>
</g>
<path fill="#fff" d="M21.289,88.639c1.636-0.437,3.376-0.822,5.242-1.148c3.695-0.693,5.62-1.078,5.774-1.155  c1.271-0.654,2.099-1.54,2.482-2.657c0.309-1.461,0.616-2.713,0.925-3.753c0.424-1.308,1.135-2.06,2.136-2.251  c1.078-0.192,1.857-0.722,2.339-1.589c-1.012-0.474-1.965-1.841-2.858-4.1c-0.9-2.257-1.575-5.78-2.021-10.567  c-1.306,1.448-2.277,1.342-2.916-0.317c-0.655-1.709-1.424-3.683-2.31-5.92c-0.896-2.244-1.328-4.255-1.299-6.033  c0.034-1.732,0.842-2.473,2.425-2.224c0.27-1.712,0.404-2.608,0.404-2.684c0-0.42-0.164-1.133-0.489-2.136  c-0.326-1.013-0.365-2.524-0.117-4.534c0.248-2.01,0.21-3.801-0.116-5.371c-0.326-1.562-0.048-3.073,0.838-4.532  c1.077-1.502,1.828-2.734,2.252-3.697c0.807-1.771,3.195-3.406,7.159-4.908c3.926-1.509,7.835-2.278,11.723-2.31  c0-0.383,0.847-0.423,2.542-0.115c1.924,0.424,3.965,1.252,6.12,2.483c0.733,0.44,1.916,1.508,3.552,3.206  c0.39-0.343,0.958-0.603,1.702-0.78c0.54-0.115,1.002-0.174,1.387-0.174c1.849,0,3.137,1.56,3.869,4.678  c0.501,2.233,0.75,5.66,0.75,10.279c0,4.042-0.02,6.236-0.058,6.583c-0.062,0.415-0.284,1.666-0.664,3.753  c0.667-0.405,1.217-0.348,1.646,0.174c0.438,0.523,0.697,0.938,0.78,1.24c0.079,0.302,0.032,1.66-0.145,4.071  c-0.18,2.416-0.498,4.525-0.953,6.323c-0.451,1.797-1.866,3.406-4.243,4.822c0,3.35-0.462,6.159-1.387,8.431  c-0.765,1.974-1.841,3.438-3.232,4.389c0.114,0.192,0.288,0.423,0.519,0.693c0.192,0.347,0.25,0.808,0.173,1.385  c1.387-0.692,2.483-0.442,3.291,0.752c0.501,0.729,1.176,2.174,2.021,4.33c0.77,1.617,2.176,2.714,4.215,3.29  c1.155,0.31,2.773,0.578,4.852,0.81c0.582,0.119,1.225,0.335,1.92,0.636c9.432-8.398,15.378-20.628,15.378-34.251  c0-25.324-20.529-45.854-45.855-45.854c-25.325,0-45.854,20.53-45.854,45.854C5.186,67.728,11.438,80.228,21.289,88.639z"/>
</svg>