<?xml version="1.0" encoding="UTF-8" standalone="no"?>
<svg width="200px" height="200px" viewBox="0 0 200 200" version="1.1" xmlns="http://www.w3.org/2000/svg" xmlns:xlink="http://www.w3.org/1999/xlink" xmlns:sketch="http://www.bohemiancoding.com/sketch/ns">
    <title>Slice 1</title>
    <description>Created with Sketch (http://www.bohemiancoding.com/sketch)</description>
    <defs></defs>
    <g id="Page 1" stroke="none" stroke-width="1" fill="none" fill-rule="evenodd">
        <g id="Group" fill="#fff">
            <path d="M99.2528926,0 C44.4363636,0 0,44.4628099 0,99.2528926 C0,154.042975 44.4363636,198.426446 99.1735537,198.504132 C153.98843,198.504132 198.424793,154.069421 198.424793,99.2528926 C198.424793,44.4363636 154.067769,0 99.1735537,0 L99.2528926,0 Z M99.2528926,182.203306 C53.5123967,182.203306 16.3008264,144.990083 16.3008264,99.2512397 C16.3008264,53.5123967 53.5123967,16.3636364 99.1735537,16.3636364 C144.912397,16.3636364 182.14876,53.553719 182.14876,99.3157025 C182.14876,145.077686 144.991736,182.14876 99.1735537,182.203306 L99.2528926,182.203306 Z M99.2528926,182.203306" id="Shape"></path>
            <path d="M160.573554,79.8661157 C160.561983,79.7884298 160.542149,79.7140496 160.530579,79.6363636 C160.504132,79.4876033 160.477686,79.338843 160.438017,79.1933884 C160.414876,79.1057851 160.383471,79.0214876 160.355372,78.938843 C160.31405,78.8099174 160.271074,78.6809917 160.219835,78.5553719 C160.185124,78.4677686 160.142149,78.3818182 160.102479,78.2975207 C160.047934,78.1785124 159.990083,78.061157 159.923967,77.9487603 C159.876033,77.8644628 159.82314,77.7834711 159.773554,77.7041322 C159.702479,77.5950413 159.629752,77.4876033 159.550413,77.385124 C159.492562,77.307438 159.431405,77.2297521 159.370248,77.1553719 C159.28595,77.0578512 159.198347,76.9619835 159.107438,76.8710744 C159.038017,76.8 158.970248,76.7289256 158.897521,76.6644628 C158.8,76.5768595 158.700826,76.492562 158.598347,76.4132231 C158.519008,76.3520661 158.441322,76.2909091 158.358678,76.2330579 C158.327273,76.2132231 158.300826,76.1884298 158.271074,76.168595 L102.17686,38.8429752 C100.404959,37.661157 98.0975207,37.661157 96.3256198,38.8429752 L40.231405,76.1669421 C40.2016529,76.1867769 40.1752066,76.2115702 40.1438017,76.231405 C40.061157,76.2892562 39.9834711,76.3504132 39.9057851,76.3966942 C39.8033058,76.477686 39.7024793,76.5619835 39.6066116,76.6479339 C39.5322314,76.7123967 39.4644628,76.7834711 39.3950413,76.8545455 C39.3024793,76.9454545 39.2165289,77.0413223 39.1338843,77.185124 C39.0710744,77.2595041 39.0099174,77.3371901 38.9520661,77.414876 C38.8743802,77.5173554 38.8,77.6247934 38.7305785,77.7338843 C38.677686,77.814876 38.6280992,77.8958678 38.5785124,77.8991736 C38.5140496,78.0115702 38.4561983,78.1289256 38.4,78.2479339 C38.3603306,78.3322314 38.3173554,78.4198347 38.2826446,78.5057851 C38.231405,78.631405 38.1884298,78.7603306 38.1471074,78.8363636 C38.1190083,78.9206612 38.0892562,79.0049587 38.0644628,79.0909091 C38.0264463,79.2363636 38,79.385124 37.9719008,79.5338843 C37.9586777,79.6115702 37.938843,79.6859504 37.9305785,79.6991736 C37.8991736,79.9256198 37.8826446,80.153719 37.8826446,80.3867769 L37.8826446,117.950413 L37.8826446,118.641322 C37.892562,118.641322 37.8826446,118.806612 37.8826446,118.806612 C37.9107438,118.971901 37.8826446,119.13719 38.0479339,119.249587 C38.0727273,119.414876 38.0479339,119.414876 38.2132231,119.504132 C38.2545455,119.669421 38.3785124,119.834711 38.3785124,119.834711 C38.4132231,120 38.3785124,120 38.5438017,120.089256 C38.6,120.254545 38.7090909,120.254545 38.7090909,120.441322 C38.7570248,120.441322 38.8743802,120.606612 38.8743802,120.606612 C38.9438017,120.771901 39.0396694,120.771901 39.0396694,120.92562 C39.0975207,120.92562 39.2049587,121.090909 39.2049587,121.155372 C39.2876033,121.320661 39.3702479,121.320661 39.5355372,121.48595 C39.6049587,121.48595 39.7008264,121.65124 39.7008264,121.692562 C39.7966942,121.857851 39.8661157,121.857851 40.031405,121.943802 C40.1090909,121.943802 40.1966942,122.109091 40.1966942,122.109091 C40.2280992,122.109091 40.1966942,122.109091 40.3619835,122.173554 L96.3256198,159.735537 C97.2115702,160.396694 98.3090909,160.561983 99.3008264,160.62314 C100.319008,160.62314 101.338843,160.32562 102.226446,159.735537 L158.322314,122.338843 C158.352066,122.319008 158.378512,122.294215 158.409917,122.27438 C158.492562,122.216529 158.570248,122.155372 158.649587,122.094215 C158.752066,122.013223 158.85124,121.928926 158.94876,121.842975 C159.021488,121.778512 159.089256,121.707438 159.158678,121.636364 C159.25124,121.545455 159.33719,121.449587 159.421488,121.352066 C159.482645,121.277686 159.543802,121.203306 159.601653,121.122314 C159.680992,121.019835 159.753719,120.912397 159.824793,120.803306 C159.87438,120.722314 159.927273,120.641322 159.975207,120.561983 C160.041322,120.446281 160.099174,120.328926 160.153719,120.209917 C160.193388,120.12562 160.236364,120.041322 160.271074,119.955372 C160.322314,119.826446 160.365289,119.697521 160.406612,119.568595 C160.434711,119.484298 160.466116,119.4 160.489256,119.31405 C160.527273,119.168595 160.555372,119.019835 160.581818,118.871074 C160.595041,118.796694 160.614876,118.719008 160.624793,118.644628 C160.654545,118.414876 160.671074,118.186777 160.671074,117.953719 L160.671074,80.553719 C160.621488,80.3305785 160.661157,80.1652893 160.495868,79.8661157 L160.573554,79.8661157 Z M104.52562,53.0132231 L145.849587,80.5603306 L127.391736,92.9090909 L104.52562,77.6132231 L104.52562,53.0132231 L104.52562,53.0132231 Z M93.9768595,53.0578512 L93.9768595,77.6578512 L71.1123967,92.9090909 L52.6528926,80.5603306 L93.9768595,53.0132231 L93.9768595,53.0578512 Z M48.431405,90.4264463 L61.6264463,99.2528926 L48.431405,108.079339 L48.431405,90.4264463 L48.431405,90.4264463 Z M93.9768595,145.490909 L52.6528926,118.016529 L71.1123967,105.671074 L93.9768595,120.963636 L93.9768595,145.490909 L93.9768595,145.490909 Z M99.2528926,111.730579 L80.5983471,99.2528926 L99.2528926,86.7752066 L117.905785,99.2528926 L99.2528926,111.730579 L99.2528926,111.730579 Z M104.52562,145.490909 L104.52562,120.892562 L127.391736,105.6 L145.849587,117.945455 L104.52562,145.490909 L104.52562,145.490909 Z M150.072727,108.079339 L136.879339,99.2528926 L150.072727,90.4264463 L150.072727,108.079339 L150.072727,108.079339 Z M150.072727,108.079339" id="Shape"></path>
        </g>
    </g>
</svg>