<?xml version="1.0" encoding="UTF-8" standalone="no"?>
<svg width="412px" height="412px" viewBox="0 0 412 412" version="1.1" xmlns="http://www.w3.org/2000/svg" xmlns:xlink="http://www.w3.org/1999/xlink" xmlns:sketch="http://www.bohemiancoding.com/sketch/ns">
    <title>Slice 1</title>
    <description>Created with Sketch (http://www.bohemiancoding.com/sketch)</description>
    <defs></defs>
    <g id="Page 1" stroke="none" stroke-width="1" fill="none" fill-rule="evenodd">
        <path d="M206,0 C92.229,0 0,92.229 0,206 C0,319.771 92.229,412 206,412 C319.771,412 412,319.771 412,206 C412,92.229 319.771,0 206,0 L206,0 Z M180.701,171.461 L115.301,205.908 L180.701,240.607 L180.701,271.957 L78.221,217.523 L78.221,194.477 L180.701,140.042 L180.701,171.461 L180.701,171.461 Z M337.779,217.523 L235.299,271.957 L235.299,240.607 L300.697,205.908 L235.299,171.461 L235.299,140.043 L337.779,194.478 L337.779,217.523 L337.779,217.523 Z M337.779,217.523" id="code-3-icon" fill="#000000"></path>
    </g>
</svg>