<?xml version="1.0" encoding="UTF-8" standalone="no"?>
<svg width="100px" height="100px" viewBox="0 0 100 100" version="1.1" xmlns="http://www.w3.org/2000/svg" xmlns:xlink="http://www.w3.org/1999/xlink" xmlns:sketch="http://www.bohemiancoding.com/sketch/ns">
    <title>GitHub</title>
    <description>Created with Sketch (http://www.bohemiancoding.com/sketch)</description>
    <defs></defs>
    <g id="Page 1" stroke="none" stroke-width="1" fill="none" fill-rule="evenodd">
        <g id="Calque_1" fill="#fff">
            <path d="M91.6625,50 C91.6625,38.7375 86.909375,27.934375 79.4875,20.50625 C72.065625,13.065625 61.259375,8.33125 49.99375,8.33125 C38.73125,8.33125 27.9875,13.084375 20.565625,20.50625 C13.14375,27.928125 8.328125,38.7375 8.328125,50 C8.328125,68.1625 20.240625,84.309375 37.49375,89.715625 L37.49375,78.7125 C35.15,79.0375 33.653125,79.16875 33,79.16875 C28.246875,79.16875 24.928125,77.01875 23.0375,72.65625 C22.3875,71.028125 21.60625,69.671875 20.69375,68.559375 C20.5,68.303125 20.04375,67.9125 19.325,67.321875 C18.60625,66.734375 18.021875,66.215625 17.503125,65.759375 C16.915625,65.303125 16.65625,64.9125 16.65625,64.715625 C16.65625,64.196875 17.24375,63.934375 18.48125,63.934375 C21.01875,63.934375 22.975,65.36875 24.340625,67.125 C25.640625,68.928125 26.878125,70.88125 29.028125,72.1375 C30.06875,72.790625 31.30625,73.1125 32.671875,73.1125 C34.496875,73.1125 36.253125,72.7875 37.946875,72.18125 C38.6625,69.709375 40.03125,67.75625 42.046875,66.3875 C27.659375,65.01875 20.825,59.94375 20.825,46.3375 C20.825,41.19375 22.3875,36.896875 25.578125,33.446875 C24.990625,31.621875 24.665625,29.796875 24.665625,27.978125 C24.665625,25.440625 25.253125,23.096875 26.421875,20.88125 C31.371875,20.88125 34.625,22.509375 39.575,26.109375 C42.89375,25.328125 46.540625,24.9375 50.578125,24.9375 C54.028125,24.9375 57.35,25.2625 60.540625,25.959375 C65.4875,22.509375 68.678125,20.88125 73.5625,20.88125 C74.734375,23.096875 75.31875,25.440625 75.31875,27.978125 C75.31875,29.865625 74.99375,31.621875 74.40625,33.38125 C77.596875,36.9625 79.159375,41.259375 79.159375,46.3375 C79.159375,59.94375 72.321875,65.153125 58,66.45625 C60.99375,68.475 62.49375,71.3375 62.49375,74.984375 L62.49375,89.7 C79.75,84.328125 91.6625,68.175 91.6625,50 L91.6625,50 Z M93.29375,24.871875 C97.7875,32.55625 100,40.953125 100,50 C100,68.1625 90.43125,84.375 75.13125,93.29375 C67.446875,97.7875 59.05,100 50,100 C31.8375,100 15.625,90.434375 6.70625,75.065625 C2.2125,67.446875 0,59.05 0,50 C0,31.840625 9.56875,15.625 24.934375,6.70625 C32.553125,2.2125 40.95,0 50,0 C68.1625,0 84.371875,9.58125 93.29375,24.871875 L93.29375,24.871875 Z M93.29375,24.871875" id="Shape"></path>
        </g>
    </g>
</svg>