<?xml version="1.0" encoding="UTF-8" standalone="no"?>
<svg width="65px" height="54px" viewBox="0 0 65 54" version="1.1" xmlns="http://www.w3.org/2000/svg" xmlns:xlink="http://www.w3.org/1999/xlink" xmlns:sketch="http://www.bohemiancoding.com/sketch/ns">
    <title>Slice 1</title>
    <description>Created with Sketch (http://www.bohemiancoding.com/sketch)</description>
    <defs></defs>
    <g id="Page 1" stroke="none" stroke-width="1" fill="none" fill-rule="evenodd">
        <g id="Slice 1" fill="#FFFFFF">
            <g id="Page 1">
                <g id="Calque_1">
                    <g id="icons">
                        <path d="M64.849633,7.8385472 C63.3567777,10.2868338 61.3264945,12.5268984 58.6360376,14.5184402 L58.6360376,15.6838112 C58.8417199,26.3669382 53.5901868,40.2405622 41.3786307,48.0791094 C35.264559,52.0252503 28.4538215,54 20.850212,54 C14.6996482,54 8.9405443,52.5390883 3.4932813,49.731451 C2.0336006,48.9623733 0.9919194,48.3780086 0.4976184,47.9817153 C0.152603,47.6996082 0,47.3839169 0,47.0480751 C0,46.4334847 0.4976184,45.9263636 1.1113478,45.9263636 C1.4265061,45.9263636 1.9440293,45.9767398 2.6406951,45.9968904 C3.3340434,46.0674171 3.8548841,46.074134 4.203217,46.074134 C8.9438618,46.074134 13.2631897,44.8751788 17.2375022,42.3664407 C12.4670002,41.2447291 8.6121162,37.6680142 7.0827689,32.9225698 C7.0495943,32.7344984 7.0131023,32.6001617 7.0131023,32.5632191 C7.0131023,31.9990049 7.4974509,31.485167 8.058101,31.485167 C8.1609422,31.485167 8.3367673,31.5355433 8.5424496,31.5556938 C8.7481319,31.6094284 8.887465,31.6262205 8.9571316,31.6262205 C4.8235813,29.0402388 2.1862036,24.4492817 2.1862036,19.5695006 C2.1862036,18.8608744 2.8098854,18.2966602 3.4999162,18.2966602 C3.7321382,18.2966602 4.123598,18.4410722 4.7074703,18.6560109 C5.331152,18.938118 5.6396755,19.1463399 5.7458341,19.1463399 C3.6027574,16.5569998 2.5478063,13.5579327 2.5478063,10.1289881 C2.5478063,7.7210025 3.2411547,4.758878 4.4188516,2.9923503 C4.654391,2.6229243 4.9297399,2.4147024 5.3178822,2.4147024 C5.6628977,2.4147024 6.0112306,2.572548 6.2169128,2.8546551 C7.9751646,4.8327632 9.2324805,6.1425462 10.0220351,6.8746813 C15.7181073,12.1070962 23.0131934,15.2774426 30.610168,15.9356925 C30.5106443,15.4453635 30.4741523,14.8878662 30.4741523,14.2027489 C30.4741523,6.3642018 36.7640491,0 44.5036744,0 C48.3054791,0 51.5532687,1.3299335 54.29017,3.9898004 C56.4730562,3.5061882 58.9213388,2.5188134 61.5487641,1.1217115 C61.7378591,1.0511848 61.9037319,0.9336402 62.1094142,0.9336402 C62.7098738,0.9336402 63.2340318,1.4575533 63.2340318,2.0553517 C63.2340318,3.1837801 61.5487641,6.0451521 60.4871781,7.3012003 C60.8156063,7.2138815 62.0762396,6.6731762 63.0383019,6.3675602 C63.5226505,6.1660551 63.7979994,6.1257541 63.867666,6.1257541 C64.4913477,6.1257541 64.9823312,6.6496673 64.9823312,7.2541825 C65.0354105,7.4724796 64.9624265,7.6773431 64.849633,7.8385472 L64.849633,7.8385472 L64.849633,7.8385472 Z M64.849633,7.8385472" id="Shape"></path>
                    </g>
                </g>
            </g>
        </g>
    </g>
</svg>