<svg width="919" height="1085" viewBox="0 0 919 1085" xmlns="http://www.w3.org/2000/svg"><title>Slice 1</title><path d="M507.594 0c53.586 32.326 90.502 86.197 103.361 172.544 16.192 108.727-25.679 215.308-49.511 266.307-64.535 138.113-166.585 213.594-177.812 346.898-9.614 114.195 44.203 176.104 83.747 204.883-27.441-10.361-85.5-38.951-128.108-127.254-18.757-38.871-34.92-116.219-4.886-197.469 19.156-51.822 82.883-203.553 100.29-267.622 24.732-91.036 21.224-172.421-48.236-227.146-32.259-25.417-91.911-54.639-180.898-34.096-82.488 19.043-149.767 78.521-178.932 157.997-56.538 154.067-22.982 333.718 100.693 457.395l331.938 331.938 332.575-332.574c169.406-169.406 169.406-444.065 0-613.469l-5.331-5.331c-78.048-78.05-177.043-122.365-278.89-133.001zm0 0" fill="#D4D4D4"/></svg>