<?xml version="1.0" encoding="UTF-8" standalone="no"?>
<svg width="919px" height="1085px" viewBox="0 0 919 1085" version="1.1" xmlns="http://www.w3.org/2000/svg" xmlns:xlink="http://www.w3.org/1999/xlink" xmlns:sketch="http://www.bohemiancoding.com/sketch/ns">
    <title>Slice 1</title>
    <description>Created with Sketch (http://www.bohemiancoding.com/sketch)</description>
    <defs></defs>
    <g id="Page 1" stroke="none" stroke-width="1" fill="none" fill-rule="evenodd">
        <g id="Slice 1" transform="translate(-1.000000, -1.000000)" fill="#D4D4D4">
            <g id="Page 1">
                <g id="Layer_1">
                    <g id="switch3069" transform="translate(0.436290, 0.187000)">
                        <g id="g3073">
                            <path d="M508.158,0.813 C561.744,33.139 598.66,87.01 611.519,173.357 C627.711,282.084 585.84,388.665 562.008,439.664 C497.473,577.777 395.423,653.258 384.196,786.562 C374.582,900.757 428.399,962.666 467.943,991.445 C440.502,981.084 382.443,952.494 339.835,864.191 C321.078,825.32 304.915,747.972 334.949,666.722 C354.105,614.9 417.832,463.169 435.239,399.1 C459.971,308.064 456.463,226.679 387.003,171.954 C354.744,146.537 295.092,117.315 206.105,137.858 C123.617,156.901 56.338,216.379 27.173,295.855 C-29.365,449.922 4.191,629.573 127.866,753.25 L459.804,1085.188 L792.379,752.614 C961.785,583.208 961.785,308.549 792.379,139.145 L787.048,133.814 C709,55.764 610.005,11.449 508.158,0.813 L508.158,0.813 L508.158,0.813 Z M508.158,0.813" id="path3075"></path>
                        </g>
                    </g>
                </g>
            </g>
        </g>
    </g>
</svg>