<svg xmlns="http://www.w3.org/2000/svg" width="100" height="100" viewBox="0 0 100 100"><path fill="#fff" d="M21.289 88.639c1.636-.437 3.376-.822 5.242-1.148 3.695-.693 5.62-1.078 5.774-1.155 1.271-.654 2.099-1.54 2.482-2.657.309-1.461.616-2.713.925-3.753.424-1.308 1.135-2.06 2.136-2.251 1.078-.192 1.857-.722 2.339-1.589-1.012-.474-1.965-1.841-2.858-4.1-.9-2.257-1.575-5.78-2.021-10.567-1.306 1.448-2.277 1.342-2.916-.317-.655-1.709-1.424-3.683-2.31-5.92-.896-2.244-1.328-4.255-1.299-6.033.034-1.732.842-2.473 2.425-2.224.27-1.712.404-2.608.404-2.684 0-.42-.164-1.133-.489-2.136-.326-1.013-.365-2.524-.117-4.534s.21-3.801-.116-5.371c-.326-1.562-.048-3.073.838-4.532 1.077-1.502 1.828-2.734 2.252-3.697.807-1.771 3.195-3.406 7.159-4.908 3.926-1.509 7.835-2.278 11.723-2.31 0-.383.847-.423 2.542-.115 1.924.424 3.965 1.252 6.12 2.483.733.44 1.916 1.508 3.552 3.206.39-.343.958-.603 1.702-.78.54-.115 1.002-.174 1.387-.174 1.849 0 3.137 1.56 3.869 4.678.501 2.233.75 5.66.75 10.279 0 4.042-.02 6.236-.058 6.583-.062.415-.284 1.666-.664 3.753.667-.405 1.217-.348 1.646.174.438.523.697.938.78 1.24.079.302.032 1.66-.145 4.071-.18 2.416-.498 4.525-.953 6.323-.451 1.797-1.866 3.406-4.243 4.822 0 3.35-.462 6.159-1.387 8.431-.765 1.974-1.841 3.438-3.232 4.389.114.192.288.423.519.693.192.347.25.808.173 1.385 1.387-.692 2.483-.442 3.291.752.501.729 1.176 2.174 2.021 4.33.77 1.617 2.176 2.714 4.215 3.29 1.155.31 2.773.578 4.852.81.582.119 1.225.335 1.92.636 9.432-8.398 15.378-20.628 15.378-34.251 0-25.324-20.529-45.854-45.855-45.854-25.325 0-45.854 20.53-45.854 45.854-.002 13.967 6.25 26.467 16.101 34.878z"/></svg>