<svg width="200" height="200" viewBox="0 0 200 200" xmlns="http://www.w3.org/2000/svg"><title>Slice 1</title><g fill="#fff"><path d="M99.253 0c-54.817 0-99.253 44.463-99.253 99.253s44.436 99.174 99.174 99.251c54.815 0 99.251-44.435 99.251-99.251 0-54.817-44.357-99.253-99.251-99.253h.079zm0 182.203c-45.74 0-82.952-37.213-82.952-82.952s37.212-82.888 82.873-82.888c45.739 0 82.975 37.19 82.975 82.952s-37.157 82.833-82.975 82.888h.079zm0 0M160.574 79.866l-.043-.23-.093-.443-.083-.255-.136-.383-.117-.258-.179-.349-.15-.245-.223-.319-.18-.23-.263-.284-.21-.207-.299-.251-.24-.18-.088-.064-56.094-37.326c-1.772-1.182-4.079-1.182-5.851 0l-56.094 37.324-.088.064-.238.165-.299.251-.212.207c-.093.091-.179.187-.261.331l-.182.23-.221.319c-.053.081-.102.162-.152.165l-.179.349-.117.258-.136.331-.083.255-.093.443-.041.165c-.031.226-.048.455-.048.688v38.42c.028.165 0 .331.165.443.025.165 0 .165.165.255.041.165.165.331.165.331.035.165 0 .165.165.255.056.165.165.165.165.352.048 0 .165.165.165.165.069.165.165.165.165.319.058 0 .165.165.165.23.083.165.165.165.331.331.069 0 .165.165.165.207.096.165.165.165.331.251.078 0 .165.165.165.165l.165.064 55.964 37.562c.886.661 1.983.826 2.975.888 1.018 0 2.038-.298 2.926-.888l56.096-37.397.088-.064.24-.18.299-.251.21-.207.263-.284.18-.23.223-.319.15-.241.179-.352.117-.255.136-.387.083-.255.093-.443.043-.226c.03-.23.046-.458.046-.691v-37.4c-.05-.223-.01-.388-.175-.688h.078zm-56.048-26.853l41.324 27.547-18.458 12.349-22.866-15.296v-24.6zm-10.549.045v24.6l-22.864 15.251-18.46-12.349 41.324-27.547v.045zm-45.545 37.369l13.195 8.826-13.195 8.826v-17.653zm45.545 55.064l-41.324-27.474 18.46-12.345 22.864 15.293v24.527zm5.276-33.76l-18.655-12.478 18.655-12.478 18.653 12.478-18.653 12.478zm5.273 33.76v-24.598l22.866-15.293 18.458 12.345-41.324 27.545zm45.547-37.412l-13.193-8.826 13.193-8.826v17.653zm0 0"/></g></svg>