<svg width="100" height="100" viewBox="0 0 100 100" xmlns="http://www.w3.org/2000/svg"><title>GitHub</title><path d="M91.662 50c0-11.263-4.753-22.066-12.175-29.494-7.422-7.441-18.228-12.175-29.494-12.175-11.262 0-22.006 4.753-29.428 12.175-7.422 7.422-12.238 18.231-12.238 29.494 0 18.162 11.913 34.309 29.166 39.716v-11.003c-2.344.325-3.841.456-4.494.456-4.753 0-8.072-2.15-9.962-6.513-.65-1.628-1.431-2.984-2.344-4.097-.194-.256-.65-.647-1.369-1.237-.719-.588-1.303-1.106-1.822-1.563-.588-.456-.847-.847-.847-1.044 0-.519.587-.781 1.825-.781 2.538 0 4.494 1.434 5.859 3.191 1.3 1.803 2.538 3.756 4.688 5.013 1.041.653 2.278.975 3.644.975 1.825 0 3.581-.325 5.275-.931.716-2.472 2.084-4.425 4.1-5.794-14.387-1.369-21.222-6.444-21.222-20.05 0-5.144 1.563-9.441 4.753-12.891-.587-1.825-.913-3.65-.913-5.469 0-2.537.588-4.881 1.756-7.097 4.95 0 8.203 1.628 13.153 5.228 3.319-.781 6.966-1.172 11.003-1.172 3.45 0 6.772.325 9.962 1.022 4.947-3.45 8.137-5.078 13.022-5.078 1.172 2.216 1.756 4.559 1.756 7.097 0 1.888-.325 3.644-.912 5.403 3.191 3.581 4.753 7.878 4.753 12.956 0 13.606-6.837 18.816-21.159 20.119 2.994 2.019 4.494 4.881 4.494 8.528v14.716c17.256-5.372 29.169-21.525 29.169-39.7zm1.631-25.128c4.494 7.684 6.706 16.081 6.706 25.128 0 18.162-9.569 34.375-24.869 43.294-7.684 4.494-16.081 6.706-25.131 6.706-18.163 0-34.375-9.566-43.294-24.934-4.494-7.619-6.706-16.016-6.706-25.066 0-18.159 9.569-34.375 24.934-43.294 7.619-4.494 16.016-6.706 25.066-6.706 18.162 0 34.372 9.581 43.294 24.872zm0 0" fill="#fff"/></svg>