<svg width="65" height="54" viewBox="0 0 65 54" xmlns="http://www.w3.org/2000/svg"><title>Slice 1</title><path d="M64.85 7.839c-1.493 2.448-3.523 4.688-6.214 6.68v1.165c.206 10.683-5.046 24.557-17.257 32.395-6.114 3.946-12.925 5.921-20.528 5.921-6.151 0-11.91-1.461-17.357-4.269-1.46-.769-2.501-1.353-2.996-1.75-.345-.282-.498-.598-.498-.934 0-.615.498-1.122 1.111-1.122l1.529.071c.693.071 1.214.077 1.563.077 4.741 0 9.06-1.199 13.034-3.708-4.771-1.122-8.625-4.698-10.155-9.444l-.07-.359c0-.564.484-1.078 1.045-1.078l.484.071c.206.054.345.071.415.071-4.134-2.586-6.771-7.177-6.771-12.057 0-.709.624-1.273 1.314-1.273.232 0 .624.144 1.208.359.624.282.932.49 1.038.49-2.143-2.589-3.198-5.588-3.198-9.017 0-2.408.693-5.37 1.871-7.137.236-.369.511-.578.899-.578.345 0 .693.158.899.44 1.758 1.978 3.016 3.288 3.805 4.02 5.696 5.232 12.991 8.403 20.588 9.061-.1-.49-.136-1.048-.136-1.733 0-7.839 6.29-14.203 14.03-14.203 3.802 0 7.05 1.33 9.786 3.99 2.183-.484 4.631-1.471 7.259-2.868.189-.071.355-.188.561-.188.6 0 1.125.524 1.125 1.122 0 1.128-1.685 3.99-2.747 5.246.328-.087 1.589-.628 2.551-.934.484-.202.76-.242.829-.242.624 0 1.115.524 1.115 1.128.053.218-.02.423-.133.584zm0 0" fill="#fff"/></svg>