<?xml version="1.0" encoding="UTF-8" standalone="no"?>
<svg width="100px" height="100px" viewBox="0 0 100 100" version="1.1" xmlns="http://www.w3.org/2000/svg" xmlns:xlink="http://www.w3.org/1999/xlink" xmlns:sketch="http://www.bohemiancoding.com/sketch/ns">
    <title>Slice 1</title>
    <description>Created with Sketch (http://www.bohemiancoding.com/sketch)</description>
    <defs></defs>
    <g id="Page 1" stroke="none" stroke-width="1" fill="none" fill-rule="evenodd">
        <g id="Calque_1" fill="#333">
            <g id="icons">
                <path d="M49.9984375,0 C22.3850745,0 0,22.3875 0,50 C0,77.628125 22.3850745,100 49.9984375,100 C77.6274259,100 100,77.628125 100,50 C100,22.39375 77.6055502,0 49.9984375,0 L49.9984375,0 Z M83.849633,32.8385472 C82.3567777,35.2868338 80.3264945,37.5268984 77.6360376,39.5184402 L77.6360376,40.6838112 C77.8417199,51.3669382 72.5901868,65.2405622 60.3786307,73.0791094 C54.264559,77.0252503 47.4538215,79 39.850212,79 C33.6996482,79 27.9405443,77.5390883 22.4932813,74.731451 C21.0336006,73.9623733 19.9919194,73.3780086 19.4976184,72.9817153 C19.152603,72.6996082 19,72.3839169 19,72.0480751 C19,71.4334847 19.4976184,70.9263636 20.1113478,70.9263636 C20.4265061,70.9263636 20.9440293,70.9767398 21.6406951,70.9968904 C22.3340434,71.0674171 22.8548841,71.074134 23.203217,71.074134 C27.9438618,71.074134 32.2631897,69.8751788 36.2375022,67.3664407 C31.4670002,66.2447291 27.6121162,62.6680142 26.0827689,57.9225698 C26.0495943,57.7344984 26.0131023,57.6001617 26.0131023,57.5632191 C26.0131023,56.9990049 26.4974509,56.485167 27.058101,56.485167 C27.1609422,56.485167 27.3367673,56.5355433 27.5424496,56.5556938 C27.7481319,56.6094284 27.887465,56.6262205 27.9571316,56.6262205 C23.8235813,54.0402388 21.1862036,49.4492817 21.1862036,44.5695006 C21.1862036,43.8608744 21.8098854,43.2966602 22.4999162,43.2966602 C22.7321382,43.2966602 23.123598,43.4410722 23.7074703,43.6560109 C24.331152,43.938118 24.6396755,44.1463399 24.7458341,44.1463399 C22.6027574,41.5569998 21.5478063,38.5579327 21.5478063,35.1289881 C21.5478063,32.7210025 22.2411547,29.758878 23.4188516,27.9923503 C23.654391,27.6229243 23.9297399,27.4147024 24.3178822,27.4147024 C24.6628977,27.4147024 25.0112306,27.572548 25.2169128,27.8546551 C26.9751646,29.8327632 28.2324805,31.1425462 29.0220351,31.8746813 C34.7181073,37.1070962 42.0131934,40.2774426 49.610168,40.9356925 C49.5106443,40.4453635 49.4741523,39.8878662 49.4741523,39.2027489 C49.4741523,31.3642018 55.7640491,25 63.5036744,25 C67.3054791,25 70.5532687,26.3299335 73.29017,28.9898004 C75.4730562,28.5061882 77.9213388,27.5188134 80.5487641,26.1217115 C80.7378591,26.0511848 80.9037319,25.9336402 81.1094142,25.9336402 C81.7098738,25.9336402 82.2340318,26.4575533 82.2340318,27.0553517 C82.2340318,28.1837801 80.5487641,31.0451521 79.4871781,32.3012003 C79.8156063,32.2138815 81.0762396,31.6731762 82.0383019,31.3675602 C82.5226505,31.1660551 82.7979994,31.1257541 82.867666,31.1257541 C83.4913477,31.1257541 83.9823312,31.6496673 83.9823312,32.2541825 C84.0354105,32.4724796 83.9624265,32.6773431 83.849633,32.8385472 L83.849633,32.8385472 Z M83.849633,32.8385472" id="Shape"></path>
            </g>
        </g>
    </g>
</svg>